<svg width="41" height="41" viewBox="0 0 41 41" fill="none" xmlns="http://www.w3.org/2000/svg">
<path d="M31.8896 18.9002L13.6441 0.654995C13.2221 0.232665 12.6588 0 12.0581 0C11.4574 0 10.8941 0.232665 10.4721 0.654995L9.12845 1.99832C8.25412 2.87364 8.25412 4.2963 9.12845 5.17029L24.4497 20.4915L9.11145 35.8297C8.68945 36.252 8.45645 36.815 8.45645 37.4154C8.45645 38.0164 8.68945 38.5794 9.11145 39.002L10.4551 40.345C10.8774 40.7673 11.4404 41 12.0411 41C12.6418 41 13.2051 40.7673 13.6271 40.345L31.8896 22.0832C32.3126 21.6595 32.5449 21.0938 32.5436 20.4925C32.5449 19.8888 32.3126 19.3235 31.8896 18.9002Z" fill="black"/>
</svg>
