<svg width="41" height="49" viewBox="0 0 41 49" fill="none" xmlns="http://www.w3.org/2000/svg">
<path d="M18.9002 47.4331L0.654994 29.1876C0.232665 28.7656 -1.83688e-07 28.2023 -1.57433e-07 27.6016C-1.31177e-07 27.001 0.232665 26.4376 0.654995 26.0157L1.99832 24.672C2.87364 23.7977 4.2963 23.7977 5.17029 24.672L20.4915 39.9932L35.8297 24.655C36.252 24.233 36.815 24 37.4154 24C38.0164 24 38.5794 24.233 39.002 24.655L40.345 25.9987C40.7673 26.421 41 26.984 41 27.5846C41 28.1853 40.7673 28.7486 40.345 29.1706L22.0832 47.4331C21.6595 47.8561 21.0938 48.0885 20.4925 48.0871C19.8888 48.0885 19.3235 47.8561 18.9002 47.4331Z" fill="black"/>
<path d="M18.9002 23.4331L0.654994 5.18763C0.232665 4.76563 -1.83688e-07 4.2023 -1.57433e-07 3.60164C-1.31177e-07 3.00098 0.232665 2.43765 0.654995 2.01565L1.99832 0.671995C2.87364 -0.202331 4.2963 -0.202331 5.17029 0.671995L20.4915 15.9932L35.8297 0.654996C36.252 0.233 36.815 1.60924e-06 37.4154 1.63548e-06C38.0164 1.66175e-06 38.5794 0.233 39.002 0.654997L40.345 1.99865C40.7673 2.42098 41 2.98398 41 3.58464C41 4.1853 40.7673 4.74863 40.345 5.17063L22.0832 23.4331C21.6595 23.8561 21.0938 24.0885 20.4925 24.0871C19.8888 24.0885 19.3235 23.8561 18.9002 23.4331Z" fill="black"/>
</svg>
